<svg xmlns="http://www.w3.org/2000/svg" version="1.1" xmlns:xlink="http://www.w3.org/1999/xlink" xmlns:svgjs="http://svgjs.dev/svgjs" width="1920" height="1080" preserveAspectRatio="none" viewBox="0 0 1920 1080"><g mask="url(&quot;#SvgjsMask2120&quot;)" fill="none"><rect width="1920" height="1080" x="0" y="0" fill="url(&quot;#SvgjsLinearGradient2121&quot;)"></rect><g mask="url(&quot;#SvgjsMask2122&quot;)"><path d="M1778 546L1750 574L1722 574L1694 574M1834 546L1806 574M1946 546L1918 546L1890 546L1862 546L1834 546L1806 546L1778 546L1750 546L1722 546L1694 546" stroke="rgba(90, 213, 213, 0.5)" stroke-width="4.67"></path><path d="M1687 546 a7 7 0 1 0 14 0 a7 7 0 1 0 -14 0zM1687 574 a7 7 0 1 0 14 0 a7 7 0 1 0 -14 0zM1799 574 a7 7 0 1 0 14 0 a7 7 0 1 0 -14 0z" fill="rgba(90, 213, 213, 0.5)"></path><path d="M1694 518L1666 490L1638 462L1610 462M1778 518L1750 490L1722 490L1694 490L1666 462M1806 518L1778 490M1946 518L1918 518L1890 518L1862 518L1834 518L1806 518L1778 518L1750 518L1722 518L1694 518L1666 518L1638 490" stroke="rgba(90, 213, 213, 0.5)" stroke-width="4.67"></path><path d="M1631 490 a7 7 0 1 0 14 0 a7 7 0 1 0 -14 0zM1603 462 a7 7 0 1 0 14 0 a7 7 0 1 0 -14 0zM1659 462 a7 7 0 1 0 14 0 a7 7 0 1 0 -14 0zM1771 490 a7 7 0 1 0 14 0 a7 7 0 1 0 -14 0z" fill="rgba(90, 213, 213, 0.5)"></path><path d="M1666 602L1638 574L1610 574M1834 602L1806 630L1778 630M1750 602L1722 630L1694 630L1666 630M1414 602L1386 630L1358 630L1330 630L1302 630M1638 602L1610 630L1582 630M1862 574L1834 574M1946 574L1918 574L1890 574L1862 574L1834 602L1806 602L1778 602L1750 602L1722 602L1694 602L1666 602L1638 602L1610 602L1582 602L1554 602L1526 602L1498 602L1470 602L1442 602L1414 602L1386 602L1358 574L1330 574L1302 574" stroke="rgba(58, 82, 195, 0.53)" stroke-width="4.67"></path><path d="M1295 574 a7 7 0 1 0 14 0 a7 7 0 1 0 -14 0zM1603 574 a7 7 0 1 0 14 0 a7 7 0 1 0 -14 0zM1771 630 a7 7 0 1 0 14 0 a7 7 0 1 0 -14 0zM1659 630 a7 7 0 1 0 14 0 a7 7 0 1 0 -14 0zM1295 630 a7 7 0 1 0 14 0 a7 7 0 1 0 -14 0zM1575 630 a7 7 0 1 0 14 0 a7 7 0 1 0 -14 0zM1827 574 a7 7 0 1 0 14 0 a7 7 0 1 0 -14 0z" fill="rgba(58, 82, 195, 0.53)"></path><path d="M1946 490L1918 490L1890 490" stroke="rgba(90, 213, 213, 0.5)" stroke-width="4.67"></path><path d="M1883 490 a7 7 0 1 0 14 0 a7 7 0 1 0 -14 0z" fill="rgba(90, 213, 213, 0.5)"></path><path d="M1918 602L1890 630M1946 602L1918 602L1890 602" stroke="rgba(90, 213, 213, 0.5)" stroke-width="4.67"></path><path d="M1883 602 a7 7 0 1 0 14 0 a7 7 0 1 0 -14 0zM1883 630 a7 7 0 1 0 14 0 a7 7 0 1 0 -14 0z" fill="rgba(90, 213, 213, 0.5)"></path><path d="M1582 434L1554 462L1526 462L1498 434L1470 434M1750 462L1722 462L1694 462M1498 406L1470 378L1442 378M1778 462L1750 434M1862 462L1834 434M1946 462L1918 462L1890 462L1862 462L1834 462L1806 462L1778 462L1750 462L1722 434L1694 434L1666 434L1638 434L1610 434L1582 434L1554 434L1526 434L1498 406L1470 406L1442 406L1414 406" stroke="rgba(90, 213, 213, 0.5)" stroke-width="4.67"></path><path d="M1407 406 a7 7 0 1 0 14 0 a7 7 0 1 0 -14 0zM1463 434 a7 7 0 1 0 14 0 a7 7 0 1 0 -14 0zM1687 462 a7 7 0 1 0 14 0 a7 7 0 1 0 -14 0zM1435 378 a7 7 0 1 0 14 0 a7 7 0 1 0 -14 0zM1743 434 a7 7 0 1 0 14 0 a7 7 0 1 0 -14 0zM1827 434 a7 7 0 1 0 14 0 a7 7 0 1 0 -14 0z" fill="rgba(90, 213, 213, 0.5)"></path><path d="M1554 658L1526 630M1638 658L1610 686L1582 714L1554 714M1806 658L1778 686L1750 686M1666 658L1638 686M1890 658L1862 686L1834 686L1806 686M1946 630L1918 658L1890 658L1862 658L1834 658L1806 658L1778 658L1750 658L1722 658L1694 658L1666 658L1638 658L1610 658L1582 658L1554 658L1526 658L1498 658L1470 658L1442 658L1414 658L1386 658" stroke="rgba(58, 82, 195, 0.53)" stroke-width="4.67"></path><path d="M1379 658 a7 7 0 1 0 14 0 a7 7 0 1 0 -14 0zM1519 630 a7 7 0 1 0 14 0 a7 7 0 1 0 -14 0zM1547 714 a7 7 0 1 0 14 0 a7 7 0 1 0 -14 0zM1743 686 a7 7 0 1 0 14 0 a7 7 0 1 0 -14 0zM1631 686 a7 7 0 1 0 14 0 a7 7 0 1 0 -14 0zM1799 686 a7 7 0 1 0 14 0 a7 7 0 1 0 -14 0z" fill="rgba(58, 82, 195, 0.53)"></path><path d="M1862 406L1834 378L1806 378L1778 378M1666 406L1638 378L1610 378L1582 378L1554 378M1694 406L1666 378L1638 350L1610 350L1582 350M1946 434L1918 406L1890 406L1862 406L1834 406L1806 406L1778 406L1750 406L1722 406L1694 406L1666 406L1638 406L1610 406L1582 406L1554 406" stroke="rgba(58, 82, 195, 0.53)" stroke-width="4.67"></path><path d="M1547 406 a7 7 0 1 0 14 0 a7 7 0 1 0 -14 0zM1771 378 a7 7 0 1 0 14 0 a7 7 0 1 0 -14 0zM1547 378 a7 7 0 1 0 14 0 a7 7 0 1 0 -14 0zM1575 350 a7 7 0 1 0 14 0 a7 7 0 1 0 -14 0z" fill="rgba(58, 82, 195, 0.53)"></path><path d="M1946 714L1918 714L1890 714L1862 714L1834 714L1806 714L1778 714L1750 714" stroke="rgba(58, 82, 195, 0.53)" stroke-width="4.67"></path><path d="M1743 714 a7 7 0 1 0 14 0 a7 7 0 1 0 -14 0z" fill="rgba(58, 82, 195, 0.53)"></path><path d="M1918 350L1890 378L1862 378M1946 350L1918 350L1890 350L1862 350L1834 350L1806 350" stroke="rgba(58, 82, 195, 0.53)" stroke-width="4.67"></path><path d="M1799 350 a7 7 0 1 0 14 0 a7 7 0 1 0 -14 0zM1855 378 a7 7 0 1 0 14 0 a7 7 0 1 0 -14 0z" fill="rgba(58, 82, 195, 0.53)"></path><path d="M1778 742L1750 770L1722 770L1694 798L1666 826M1666 798L1638 770M1638 798L1610 798L1582 798M1946 742L1918 742L1890 742L1862 742L1834 742L1806 742L1778 742L1750 742L1722 742L1694 770L1666 798L1638 798L1610 826" stroke="rgba(58, 82, 195, 0.53)" stroke-width="4.67"></path><path d="M1603 826 a7 7 0 1 0 14 0 a7 7 0 1 0 -14 0zM1659 826 a7 7 0 1 0 14 0 a7 7 0 1 0 -14 0zM1631 770 a7 7 0 1 0 14 0 a7 7 0 1 0 -14 0zM1575 798 a7 7 0 1 0 14 0 a7 7 0 1 0 -14 0z" fill="rgba(58, 82, 195, 0.53)"></path><path d="M1946 322L1918 322L1890 322L1862 322L1834 322" stroke="rgba(58, 82, 195, 0.53)" stroke-width="4.67"></path><path d="M1827 322 a7 7 0 1 0 14 0 a7 7 0 1 0 -14 0z" fill="rgba(58, 82, 195, 0.53)"></path><path d="M1862 770L1834 798M1890 770L1862 798L1834 826L1806 854L1778 854M1918 770L1890 798L1862 826M1946 770L1918 770L1890 770L1862 770L1834 770" stroke="rgba(58, 82, 195, 0.53)" stroke-width="4.67"></path><path d="M1827 770 a7 7 0 1 0 14 0 a7 7 0 1 0 -14 0zM1827 798 a7 7 0 1 0 14 0 a7 7 0 1 0 -14 0zM1771 854 a7 7 0 1 0 14 0 a7 7 0 1 0 -14 0zM1855 826 a7 7 0 1 0 14 0 a7 7 0 1 0 -14 0z" fill="rgba(58, 82, 195, 0.53)"></path><path d="M1890 294L1862 266L1834 266M1918 294L1890 266L1862 238M1946 294L1918 294L1890 294L1862 294" stroke="rgba(58, 82, 195, 0.53)" stroke-width="4.67"></path><path d="M1855 294 a7 7 0 1 0 14 0 a7 7 0 1 0 -14 0zM1827 266 a7 7 0 1 0 14 0 a7 7 0 1 0 -14 0zM1855 238 a7 7 0 1 0 14 0 a7 7 0 1 0 -14 0z" fill="rgba(58, 82, 195, 0.53)"></path></g></g><defs><mask id="SvgjsMask2120"><rect width="1920" height="1080" fill="#ffffff"></rect></mask><linearGradient x1="10.94%" y1="-19.44%" x2="89.06%" y2="119.44%" gradientUnits="userSpaceOnUse" id="SvgjsLinearGradient2121"><stop stop-color="rgba(25, 14, 71, 1)" offset="0"></stop><stop stop-color="rgba(0, 0, 0, 1)" offset="1"></stop></linearGradient><mask id="SvgjsMask2122"><rect width="1920" height="1080" fill="white"></rect><path d="M1690.5 546 a3.5 3.5 0 1 0 7 0 a3.5 3.5 0 1 0 -7 0zM1690.5 574 a3.5 3.5 0 1 0 7 0 a3.5 3.5 0 1 0 -7 0zM1802.5 574 a3.5 3.5 0 1 0 7 0 a3.5 3.5 0 1 0 -7 0z" fill="black"></path><path d="M1634.5 490 a3.5 3.5 0 1 0 7 0 a3.5 3.5 0 1 0 -7 0zM1606.5 462 a3.5 3.5 0 1 0 7 0 a3.5 3.5 0 1 0 -7 0zM1662.5 462 a3.5 3.5 0 1 0 7 0 a3.5 3.5 0 1 0 -7 0zM1774.5 490 a3.5 3.5 0 1 0 7 0 a3.5 3.5 0 1 0 -7 0z" fill="black"></path><path d="M1298.5 574 a3.5 3.5 0 1 0 7 0 a3.5 3.5 0 1 0 -7 0zM1606.5 574 a3.5 3.5 0 1 0 7 0 a3.5 3.5 0 1 0 -7 0zM1774.5 630 a3.5 3.5 0 1 0 7 0 a3.5 3.5 0 1 0 -7 0zM1662.5 630 a3.5 3.5 0 1 0 7 0 a3.5 3.5 0 1 0 -7 0zM1298.5 630 a3.5 3.5 0 1 0 7 0 a3.5 3.5 0 1 0 -7 0zM1578.5 630 a3.5 3.5 0 1 0 7 0 a3.5 3.5 0 1 0 -7 0zM1830.5 574 a3.5 3.5 0 1 0 7 0 a3.5 3.5 0 1 0 -7 0z" fill="black"></path><path d="M1886.5 490 a3.5 3.5 0 1 0 7 0 a3.5 3.5 0 1 0 -7 0z" fill="black"></path><path d="M1886.5 602 a3.5 3.5 0 1 0 7 0 a3.5 3.5 0 1 0 -7 0zM1886.5 630 a3.5 3.5 0 1 0 7 0 a3.5 3.5 0 1 0 -7 0z" fill="black"></path><path d="M1410.5 406 a3.5 3.5 0 1 0 7 0 a3.5 3.5 0 1 0 -7 0zM1466.5 434 a3.5 3.5 0 1 0 7 0 a3.5 3.5 0 1 0 -7 0zM1690.5 462 a3.5 3.5 0 1 0 7 0 a3.5 3.5 0 1 0 -7 0zM1438.5 378 a3.5 3.5 0 1 0 7 0 a3.5 3.5 0 1 0 -7 0zM1746.5 434 a3.5 3.5 0 1 0 7 0 a3.5 3.5 0 1 0 -7 0zM1830.5 434 a3.5 3.5 0 1 0 7 0 a3.5 3.5 0 1 0 -7 0z" fill="black"></path><path d="M1382.5 658 a3.5 3.5 0 1 0 7 0 a3.5 3.5 0 1 0 -7 0zM1522.5 630 a3.5 3.5 0 1 0 7 0 a3.5 3.5 0 1 0 -7 0zM1550.5 714 a3.5 3.5 0 1 0 7 0 a3.5 3.5 0 1 0 -7 0zM1746.5 686 a3.5 3.5 0 1 0 7 0 a3.5 3.5 0 1 0 -7 0zM1634.5 686 a3.5 3.5 0 1 0 7 0 a3.5 3.5 0 1 0 -7 0zM1802.5 686 a3.5 3.5 0 1 0 7 0 a3.5 3.5 0 1 0 -7 0z" fill="black"></path><path d="M1550.5 406 a3.5 3.5 0 1 0 7 0 a3.5 3.5 0 1 0 -7 0zM1774.5 378 a3.5 3.5 0 1 0 7 0 a3.5 3.5 0 1 0 -7 0zM1550.5 378 a3.5 3.5 0 1 0 7 0 a3.5 3.5 0 1 0 -7 0zM1578.5 350 a3.5 3.5 0 1 0 7 0 a3.5 3.5 0 1 0 -7 0z" fill="black"></path><path d="M1746.5 714 a3.5 3.5 0 1 0 7 0 a3.5 3.5 0 1 0 -7 0z" fill="black"></path><path d="M1802.5 350 a3.5 3.5 0 1 0 7 0 a3.5 3.5 0 1 0 -7 0zM1858.5 378 a3.5 3.5 0 1 0 7 0 a3.5 3.5 0 1 0 -7 0z" fill="black"></path><path d="M1606.5 826 a3.5 3.5 0 1 0 7 0 a3.5 3.5 0 1 0 -7 0zM1662.5 826 a3.5 3.5 0 1 0 7 0 a3.5 3.5 0 1 0 -7 0zM1634.5 770 a3.5 3.5 0 1 0 7 0 a3.5 3.5 0 1 0 -7 0zM1578.5 798 a3.5 3.5 0 1 0 7 0 a3.5 3.5 0 1 0 -7 0z" fill="black"></path><path d="M1830.5 322 a3.5 3.5 0 1 0 7 0 a3.5 3.5 0 1 0 -7 0z" fill="black"></path><path d="M1830.5 770 a3.5 3.5 0 1 0 7 0 a3.5 3.5 0 1 0 -7 0zM1830.5 798 a3.5 3.5 0 1 0 7 0 a3.5 3.5 0 1 0 -7 0zM1774.5 854 a3.5 3.5 0 1 0 7 0 a3.5 3.5 0 1 0 -7 0zM1858.5 826 a3.5 3.5 0 1 0 7 0 a3.5 3.5 0 1 0 -7 0z" fill="black"></path><path d="M1858.5 294 a3.5 3.5 0 1 0 7 0 a3.5 3.5 0 1 0 -7 0zM1830.5 266 a3.5 3.5 0 1 0 7 0 a3.5 3.5 0 1 0 -7 0zM1858.5 238 a3.5 3.5 0 1 0 7 0 a3.5 3.5 0 1 0 -7 0z" fill="black"></path></mask></defs></svg>