<svg xmlns="http://www.w3.org/2000/svg" version="1.1" xmlns:xlink="http://www.w3.org/1999/xlink" xmlns:svgjs="http://svgjs.dev/svgjs" width="430" height="932" preserveAspectRatio="none" viewBox="0 0 430 932"><g mask="url(&quot;#SvgjsMask1555&quot;)" fill="none"><rect width="430" height="932" x="0" y="0" fill="url(&quot;#SvgjsLinearGradient1556&quot;)"></rect><g mask="url(&quot;#SvgjsMask1557&quot;)"><path d="M202.5 -22.5L247.5 22.5" stroke="rgba(58, 82, 195, 0.68)" stroke-width="7.5"></path><path d="M236.25 22.5 a11.25 11.25 0 1 0 22.5 0 a11.25 11.25 0 1 0 -22.5 0z" fill="rgba(58, 82, 195, 0.68)"></path><path d="M292.5 67.5L247.5 112.5L247.5 157.5L247.5 202.5M247.5 -22.5L292.5 22.5L292.5 67.5L292.5 112.5" stroke="rgba(90, 213, 213, 0.76)" stroke-width="7.5"></path><path d="M281.25 112.5 a11.25 11.25 0 1 0 22.5 0 a11.25 11.25 0 1 0 -22.5 0zM236.25 202.5 a11.25 11.25 0 1 0 22.5 0 a11.25 11.25 0 1 0 -22.5 0z" fill="rgba(90, 213, 213, 0.76)"></path><path d="M157.5 112.5L202.5 157.5M157.5 22.5L202.5 67.5M202.5 202.5L157.5 247.5M157.5 -22.5L157.5 22.5L157.5 67.5L157.5 112.5L157.5 157.5L202.5 202.5L202.5 247.5" stroke="rgba(58, 82, 195, 0.68)" stroke-width="7.5"></path><path d="M191.25 247.5 a11.25 11.25 0 1 0 22.5 0 a11.25 11.25 0 1 0 -22.5 0zM191.25 157.5 a11.25 11.25 0 1 0 22.5 0 a11.25 11.25 0 1 0 -22.5 0zM191.25 67.5 a11.25 11.25 0 1 0 22.5 0 a11.25 11.25 0 1 0 -22.5 0zM146.25 247.5 a11.25 11.25 0 1 0 22.5 0 a11.25 11.25 0 1 0 -22.5 0z" fill="rgba(58, 82, 195, 0.68)"></path><path d="M112.5 -22.5L112.5 22.5L112.5 67.5L112.5 112.5" stroke="rgba(90, 213, 213, 0.76)" stroke-width="7.5"></path><path d="M101.25 112.5 a11.25 11.25 0 1 0 22.5 0 a11.25 11.25 0 1 0 -22.5 0z" fill="rgba(90, 213, 213, 0.76)"></path></g></g><defs><mask id="SvgjsMask1555"><rect width="430" height="932" fill="#ffffff"></rect></mask><linearGradient x1="-29.19%" y1="13.47%" x2="129.19%" y2="86.53%" gradientUnits="userSpaceOnUse" id="SvgjsLinearGradient1556"><stop stop-color="rgba(25, 14, 71, 1)" offset="0"></stop><stop stop-color="rgba(0, 0, 0, 1)" offset="1"></stop></linearGradient><mask id="SvgjsMask1557"><rect width="430" height="932" fill="white"></rect><path d="M241.87 22.5 a5.63 5.63 0 1 0 11.26 0 a5.63 5.63 0 1 0 -11.26 0z" fill="black"></path><path d="M286.87 112.5 a5.63 5.63 0 1 0 11.26 0 a5.63 5.63 0 1 0 -11.26 0zM241.87 202.5 a5.63 5.63 0 1 0 11.26 0 a5.63 5.63 0 1 0 -11.26 0z" fill="black"></path><path d="M196.87 247.5 a5.63 5.63 0 1 0 11.26 0 a5.63 5.63 0 1 0 -11.26 0zM196.87 157.5 a5.63 5.63 0 1 0 11.26 0 a5.63 5.63 0 1 0 -11.26 0zM196.87 67.5 a5.63 5.63 0 1 0 11.26 0 a5.63 5.63 0 1 0 -11.26 0zM151.87 247.5 a5.63 5.63 0 1 0 11.26 0 a5.63 5.63 0 1 0 -11.26 0z" fill="black"></path><path d="M106.87 112.5 a5.63 5.63 0 1 0 11.26 0 a5.63 5.63 0 1 0 -11.26 0z" fill="black"></path></mask></defs></svg>