<svg xmlns="http://www.w3.org/2000/svg" version="1.1" xmlns:xlink="http://www.w3.org/1999/xlink" xmlns:svgjs="http://svgjs.dev/svgjs" width="430" height="932" preserveAspectRatio="none" viewBox="0 0 430 932"><g mask="url(&quot;#SvgjsMask1321&quot;)" fill="none"><rect width="430" height="932" x="0" y="0" fill="url(&quot;#SvgjsLinearGradient1322&quot;)"></rect><g mask="url(&quot;#SvgjsMask1323&quot;)"><path d="M153 765L153 731L153 697L153 663M221 969L221 935L221 901L221 867L221 833L187 799L153 765L119 731" stroke="rgba(90, 213, 213, 0.76)" stroke-width="5.67"></path><path d="M110.5 731 a8.5 8.5 0 1 0 17 0 a8.5 8.5 0 1 0 -17 0zM144.5 663 a8.5 8.5 0 1 0 17 0 a8.5 8.5 0 1 0 -17 0z" fill="rgba(90, 213, 213, 0.76)"></path><path d="M85 697L119 663L153 629M187 969L187 935L187 901L187 867L187 833L153 799L119 765L85 731L85 697L85 663L85 629" stroke="rgba(58, 82, 195, 0.68)" stroke-width="5.67"></path><path d="M76.5 629 a8.5 8.5 0 1 0 17 0 a8.5 8.5 0 1 0 -17 0zM144.5 629 a8.5 8.5 0 1 0 17 0 a8.5 8.5 0 1 0 -17 0z" fill="rgba(58, 82, 195, 0.68)"></path><path d="M255 629L289 595L289 561L289 527M255 527L221 493M255 765L289 731M255 561L221 527L187 493M255 969L255 935L255 901L255 867L255 833L255 799L255 765L255 731L255 697L255 663L255 629L255 595L255 561L255 527L255 493L221 459L221 425" stroke="rgba(58, 82, 195, 0.68)" stroke-width="5.67"></path><path d="M212.5 425 a8.5 8.5 0 1 0 17 0 a8.5 8.5 0 1 0 -17 0zM280.5 527 a8.5 8.5 0 1 0 17 0 a8.5 8.5 0 1 0 -17 0zM212.5 493 a8.5 8.5 0 1 0 17 0 a8.5 8.5 0 1 0 -17 0zM280.5 731 a8.5 8.5 0 1 0 17 0 a8.5 8.5 0 1 0 -17 0zM178.5 493 a8.5 8.5 0 1 0 17 0 a8.5 8.5 0 1 0 -17 0z" fill="rgba(58, 82, 195, 0.68)"></path><path d="M153 969L153 935L153 901L153 867L153 833" stroke="rgba(90, 213, 213, 0.76)" stroke-width="5.67"></path><path d="M144.5 833 a8.5 8.5 0 1 0 17 0 a8.5 8.5 0 1 0 -17 0z" fill="rgba(90, 213, 213, 0.76)"></path><path d="M289 901L323 867L323 833L289 799M289 935L323 901L357 867L357 833M289 969L289 935L289 901L289 867" stroke="rgba(90, 213, 213, 0.76)" stroke-width="5.67"></path><path d="M280.5 867 a8.5 8.5 0 1 0 17 0 a8.5 8.5 0 1 0 -17 0zM280.5 799 a8.5 8.5 0 1 0 17 0 a8.5 8.5 0 1 0 -17 0zM348.5 833 a8.5 8.5 0 1 0 17 0 a8.5 8.5 0 1 0 -17 0z" fill="rgba(90, 213, 213, 0.76)"></path><path d="M119 901L85 867M119 935L85 901M119 969L119 935L119 901L119 867L85 833L85 799L85 765" stroke="rgba(58, 82, 195, 0.68)" stroke-width="5.67"></path><path d="M76.5 765 a8.5 8.5 0 1 0 17 0 a8.5 8.5 0 1 0 -17 0zM76.5 867 a8.5 8.5 0 1 0 17 0 a8.5 8.5 0 1 0 -17 0zM76.5 901 a8.5 8.5 0 1 0 17 0 a8.5 8.5 0 1 0 -17 0z" fill="rgba(58, 82, 195, 0.68)"></path></g></g><defs><mask id="SvgjsMask1321"><rect width="430" height="932" fill="#ffffff"></rect></mask><linearGradient x1="-29.19%" y1="13.47%" x2="129.19%" y2="86.53%" gradientUnits="userSpaceOnUse" id="SvgjsLinearGradient1322"><stop stop-color="rgba(25, 14, 71, 1)" offset="0"></stop><stop stop-color="rgba(0, 0, 0, 1)" offset="1"></stop></linearGradient><mask id="SvgjsMask1323"><rect width="430" height="932" fill="white"></rect><path d="M114.75 731 a4.25 4.25 0 1 0 8.5 0 a4.25 4.25 0 1 0 -8.5 0zM148.75 663 a4.25 4.25 0 1 0 8.5 0 a4.25 4.25 0 1 0 -8.5 0z" fill="black"></path><path d="M80.75 629 a4.25 4.25 0 1 0 8.5 0 a4.25 4.25 0 1 0 -8.5 0zM148.75 629 a4.25 4.25 0 1 0 8.5 0 a4.25 4.25 0 1 0 -8.5 0z" fill="black"></path><path d="M216.75 425 a4.25 4.25 0 1 0 8.5 0 a4.25 4.25 0 1 0 -8.5 0zM284.75 527 a4.25 4.25 0 1 0 8.5 0 a4.25 4.25 0 1 0 -8.5 0zM216.75 493 a4.25 4.25 0 1 0 8.5 0 a4.25 4.25 0 1 0 -8.5 0zM284.75 731 a4.25 4.25 0 1 0 8.5 0 a4.25 4.25 0 1 0 -8.5 0zM182.75 493 a4.25 4.25 0 1 0 8.5 0 a4.25 4.25 0 1 0 -8.5 0z" fill="black"></path><path d="M148.75 833 a4.25 4.25 0 1 0 8.5 0 a4.25 4.25 0 1 0 -8.5 0z" fill="black"></path><path d="M284.75 867 a4.25 4.25 0 1 0 8.5 0 a4.25 4.25 0 1 0 -8.5 0zM284.75 799 a4.25 4.25 0 1 0 8.5 0 a4.25 4.25 0 1 0 -8.5 0zM352.75 833 a4.25 4.25 0 1 0 8.5 0 a4.25 4.25 0 1 0 -8.5 0z" fill="black"></path><path d="M80.75 765 a4.25 4.25 0 1 0 8.5 0 a4.25 4.25 0 1 0 -8.5 0zM80.75 867 a4.25 4.25 0 1 0 8.5 0 a4.25 4.25 0 1 0 -8.5 0zM80.75 901 a4.25 4.25 0 1 0 8.5 0 a4.25 4.25 0 1 0 -8.5 0z" fill="black"></path></mask></defs></svg>