<svg xmlns="http://www.w3.org/2000/svg" version="1.1" xmlns:xlink="http://www.w3.org/1999/xlink" xmlns:svgjs="http://svgjs.dev/svgjs" width="1920" height="1080" preserveAspectRatio="none" viewBox="0 0 1920 1080"><g mask="url(&quot;#SvgjsMask2747&quot;)" fill="none"><rect width="1920" height="1080" x="0" y="0" fill="url(&quot;#SvgjsLinearGradient2748&quot;)"></rect><g mask="url(&quot;#SvgjsMask2749&quot;)"><path d="M70.5 540.5L117.5 540.5L164.5 540.5L211.5 540.5M634.5 493.5L681.5 540.5M493.5 493.5L540.5 540.5L587.5 540.5L634.5 540.5L681.5 587.5M258.5 540.5L305.5 587.5M446.5 493.5L493.5 540.5L540.5 587.5M-23.5 540.5L23.5 540.5L70.5 540.5L117.5 587.5L164.5 587.5L211.5 587.5L258.5 540.5L305.5 540.5L352.5 540.5L399.5 540.5L446.5 493.5L493.5 493.5L540.5 493.5L587.5 493.5L634.5 493.5L681.5 493.5L728.5 540.5L775.5 540.5L822.5 587.5L869.5 587.5L916.5 587.5" stroke="rgba(58, 82, 195, 0.68)" stroke-width="7.83"></path><path d="M904.75 587.5 a11.75 11.75 0 1 0 23.5 0 a11.75 11.75 0 1 0 -23.5 0zM199.75 540.5 a11.75 11.75 0 1 0 23.5 0 a11.75 11.75 0 1 0 -23.5 0zM669.75 540.5 a11.75 11.75 0 1 0 23.5 0 a11.75 11.75 0 1 0 -23.5 0zM669.75 587.5 a11.75 11.75 0 1 0 23.5 0 a11.75 11.75 0 1 0 -23.5 0zM293.75 587.5 a11.75 11.75 0 1 0 23.5 0 a11.75 11.75 0 1 0 -23.5 0zM528.75 587.5 a11.75 11.75 0 1 0 23.5 0 a11.75 11.75 0 1 0 -23.5 0z" fill="rgba(58, 82, 195, 0.68)"></path><path d="M728.5 446.5L775.5 493.5L822.5 493.5L869.5 493.5L916.5 540.5M822.5 446.5L869.5 399.5M681.5 446.5L728.5 399.5L775.5 399.5L822.5 399.5L869.5 352.5L916.5 352.5M634.5 446.5L681.5 399.5L728.5 352.5M587.5 446.5L634.5 399.5L681.5 352.5M-23.5 493.5L23.5 493.5L70.5 493.5L117.5 493.5L164.5 493.5L211.5 493.5L258.5 493.5L305.5 493.5L352.5 493.5L399.5 493.5L446.5 446.5L493.5 446.5L540.5 446.5L587.5 446.5L634.5 446.5L681.5 446.5L728.5 446.5L775.5 446.5L822.5 446.5L869.5 446.5" stroke="rgba(58, 82, 195, 0.68)" stroke-width="7.83"></path><path d="M857.75 446.5 a11.75 11.75 0 1 0 23.5 0 a11.75 11.75 0 1 0 -23.5 0zM904.75 540.5 a11.75 11.75 0 1 0 23.5 0 a11.75 11.75 0 1 0 -23.5 0zM857.75 399.5 a11.75 11.75 0 1 0 23.5 0 a11.75 11.75 0 1 0 -23.5 0zM904.75 352.5 a11.75 11.75 0 1 0 23.5 0 a11.75 11.75 0 1 0 -23.5 0zM716.75 352.5 a11.75 11.75 0 1 0 23.5 0 a11.75 11.75 0 1 0 -23.5 0zM669.75 352.5 a11.75 11.75 0 1 0 23.5 0 a11.75 11.75 0 1 0 -23.5 0z" fill="rgba(58, 82, 195, 0.68)"></path><path d="M305.5 681.5L352.5 681.5L399.5 681.5L446.5 681.5M-23.5 587.5L23.5 587.5L70.5 587.5L117.5 634.5L164.5 634.5L211.5 634.5L258.5 681.5L305.5 681.5L352.5 728.5L399.5 728.5" stroke="rgba(90, 213, 213, 0.76)" stroke-width="7.83"></path><path d="M387.75 728.5 a11.75 11.75 0 1 0 23.5 0 a11.75 11.75 0 1 0 -23.5 0zM434.75 681.5 a11.75 11.75 0 1 0 23.5 0 a11.75 11.75 0 1 0 -23.5 0z" fill="rgba(90, 213, 213, 0.76)"></path><path d="M493.5 399.5L540.5 352.5L587.5 352.5M446.5 399.5L493.5 352.5L540.5 305.5L587.5 305.5M305.5 446.5L352.5 399.5L399.5 399.5L446.5 352.5L493.5 305.5M-23.5 446.5L23.5 446.5L70.5 446.5L117.5 446.5L164.5 446.5L211.5 446.5L258.5 446.5L305.5 446.5L352.5 446.5L399.5 446.5L446.5 399.5L493.5 399.5L540.5 399.5" stroke="rgba(58, 82, 195, 0.68)" stroke-width="7.83"></path><path d="M528.75 399.5 a11.75 11.75 0 1 0 23.5 0 a11.75 11.75 0 1 0 -23.5 0zM575.75 352.5 a11.75 11.75 0 1 0 23.5 0 a11.75 11.75 0 1 0 -23.5 0zM575.75 305.5 a11.75 11.75 0 1 0 23.5 0 a11.75 11.75 0 1 0 -23.5 0zM481.75 305.5 a11.75 11.75 0 1 0 23.5 0 a11.75 11.75 0 1 0 -23.5 0z" fill="rgba(58, 82, 195, 0.68)"></path><path d="M775.5 775.5L822.5 728.5L869.5 728.5M681.5 822.5L728.5 822.5L775.5 822.5L822.5 822.5L869.5 822.5M493.5 775.5L540.5 775.5L587.5 775.5L634.5 728.5L681.5 728.5L728.5 681.5L775.5 681.5M446.5 775.5L493.5 728.5M587.5 822.5L634.5 869.5L681.5 869.5L728.5 869.5M-23.5 634.5L23.5 681.5L70.5 681.5L117.5 681.5L164.5 681.5L211.5 681.5L258.5 728.5L305.5 728.5L352.5 775.5L399.5 775.5L446.5 775.5L493.5 775.5L540.5 822.5L587.5 822.5L634.5 822.5L681.5 822.5L728.5 775.5L775.5 775.5L822.5 775.5L869.5 775.5" stroke="rgba(58, 82, 195, 0.68)" stroke-width="7.83"></path><path d="M857.75 775.5 a11.75 11.75 0 1 0 23.5 0 a11.75 11.75 0 1 0 -23.5 0zM857.75 728.5 a11.75 11.75 0 1 0 23.5 0 a11.75 11.75 0 1 0 -23.5 0zM857.75 822.5 a11.75 11.75 0 1 0 23.5 0 a11.75 11.75 0 1 0 -23.5 0zM763.75 681.5 a11.75 11.75 0 1 0 23.5 0 a11.75 11.75 0 1 0 -23.5 0zM481.75 728.5 a11.75 11.75 0 1 0 23.5 0 a11.75 11.75 0 1 0 -23.5 0zM716.75 869.5 a11.75 11.75 0 1 0 23.5 0 a11.75 11.75 0 1 0 -23.5 0z" fill="rgba(58, 82, 195, 0.68)"></path><path d="M258.5 775.5L305.5 775.5M822.5 916.5L869.5 869.5L916.5 869.5L963.5 869.5L1010.5 869.5L1057.5 869.5L1104.5 869.5L1151.5 869.5L1198.5 869.5M446.5 822.5L493.5 869.5M775.5 916.5L822.5 869.5M-23.5 681.5L23.5 728.5L70.5 728.5L117.5 728.5L164.5 728.5L211.5 728.5L258.5 775.5L305.5 822.5L352.5 822.5L399.5 822.5L446.5 822.5L493.5 822.5L540.5 869.5L587.5 916.5L634.5 916.5L681.5 916.5L728.5 916.5L775.5 916.5L822.5 916.5L869.5 916.5L916.5 916.5" stroke="rgba(90, 213, 213, 0.76)" stroke-width="7.83"></path><path d="M904.75 916.5 a11.75 11.75 0 1 0 23.5 0 a11.75 11.75 0 1 0 -23.5 0zM293.75 775.5 a11.75 11.75 0 1 0 23.5 0 a11.75 11.75 0 1 0 -23.5 0zM1186.75 869.5 a11.75 11.75 0 1 0 23.5 0 a11.75 11.75 0 1 0 -23.5 0zM481.75 869.5 a11.75 11.75 0 1 0 23.5 0 a11.75 11.75 0 1 0 -23.5 0zM810.75 869.5 a11.75 11.75 0 1 0 23.5 0 a11.75 11.75 0 1 0 -23.5 0z" fill="rgba(90, 213, 213, 0.76)"></path><path d="M164.5 399.5L211.5 352.5M23.5 399.5L70.5 352.5M117.5 399.5L164.5 352.5M-23.5 352.5L23.5 399.5L70.5 399.5L117.5 399.5L164.5 399.5L211.5 399.5L258.5 399.5" stroke="rgba(58, 82, 195, 0.68)" stroke-width="7.83"></path><path d="M246.75 399.5 a11.75 11.75 0 1 0 23.5 0 a11.75 11.75 0 1 0 -23.5 0zM199.75 352.5 a11.75 11.75 0 1 0 23.5 0 a11.75 11.75 0 1 0 -23.5 0zM58.75 352.5 a11.75 11.75 0 1 0 23.5 0 a11.75 11.75 0 1 0 -23.5 0zM152.75 352.5 a11.75 11.75 0 1 0 23.5 0 a11.75 11.75 0 1 0 -23.5 0z" fill="rgba(58, 82, 195, 0.68)"></path><path d="M23.5 775.5L70.5 822.5L117.5 822.5L164.5 822.5L211.5 822.5M305.5 869.5L352.5 916.5L399.5 916.5M399.5 869.5L446.5 869.5M446.5 916.5L493.5 963.5L540.5 963.5M-23.5 728.5L23.5 775.5L70.5 775.5L117.5 775.5L164.5 775.5L211.5 775.5L258.5 822.5L305.5 869.5L352.5 869.5L399.5 869.5L446.5 916.5L493.5 916.5L540.5 916.5L587.5 963.5L634.5 963.5L681.5 963.5L728.5 963.5L775.5 963.5L822.5 963.5L869.5 963.5L916.5 963.5" stroke="rgba(58, 82, 195, 0.68)" stroke-width="7.83"></path><path d="M904.75 963.5 a11.75 11.75 0 1 0 23.5 0 a11.75 11.75 0 1 0 -23.5 0zM199.75 822.5 a11.75 11.75 0 1 0 23.5 0 a11.75 11.75 0 1 0 -23.5 0zM387.75 916.5 a11.75 11.75 0 1 0 23.5 0 a11.75 11.75 0 1 0 -23.5 0zM434.75 869.5 a11.75 11.75 0 1 0 23.5 0 a11.75 11.75 0 1 0 -23.5 0zM528.75 963.5 a11.75 11.75 0 1 0 23.5 0 a11.75 11.75 0 1 0 -23.5 0z" fill="rgba(58, 82, 195, 0.68)"></path><path d="M587.5 258.5L634.5 211.5L681.5 211.5L728.5 211.5L775.5 211.5L822.5 211.5M446.5 258.5L493.5 211.5L540.5 211.5L587.5 211.5L634.5 164.5M634.5 258.5L681.5 305.5L728.5 305.5L775.5 305.5L822.5 305.5M399.5 258.5L446.5 305.5M-23.5 305.5L23.5 305.5L70.5 305.5L117.5 305.5L164.5 305.5L211.5 305.5L258.5 305.5L305.5 258.5L352.5 258.5L399.5 258.5L446.5 258.5L493.5 258.5L540.5 258.5L587.5 258.5L634.5 258.5L681.5 258.5L728.5 258.5L775.5 258.5" stroke="rgba(58, 82, 195, 0.68)" stroke-width="7.83"></path><path d="M763.75 258.5 a11.75 11.75 0 1 0 23.5 0 a11.75 11.75 0 1 0 -23.5 0zM810.75 211.5 a11.75 11.75 0 1 0 23.5 0 a11.75 11.75 0 1 0 -23.5 0zM622.75 164.5 a11.75 11.75 0 1 0 23.5 0 a11.75 11.75 0 1 0 -23.5 0zM810.75 305.5 a11.75 11.75 0 1 0 23.5 0 a11.75 11.75 0 1 0 -23.5 0zM434.75 305.5 a11.75 11.75 0 1 0 23.5 0 a11.75 11.75 0 1 0 -23.5 0z" fill="rgba(58, 82, 195, 0.68)"></path></g></g><defs><mask id="SvgjsMask2747"><rect width="1920" height="1080" fill="#ffffff"></rect></mask><linearGradient x1="10.94%" y1="-19.44%" x2="89.06%" y2="119.44%" gradientUnits="userSpaceOnUse" id="SvgjsLinearGradient2748"><stop stop-color="rgba(25, 14, 71, 1)" offset="0"></stop><stop stop-color="rgba(0, 0, 0, 1)" offset="1"></stop></linearGradient><mask id="SvgjsMask2749"><rect width="1920" height="1080" fill="white"></rect><path d="M910.62 587.5 a5.88 5.88 0 1 0 11.76 0 a5.88 5.88 0 1 0 -11.76 0zM205.62 540.5 a5.88 5.88 0 1 0 11.76 0 a5.88 5.88 0 1 0 -11.76 0zM675.62 540.5 a5.88 5.88 0 1 0 11.76 0 a5.88 5.88 0 1 0 -11.76 0zM675.62 587.5 a5.88 5.88 0 1 0 11.76 0 a5.88 5.88 0 1 0 -11.76 0zM299.62 587.5 a5.88 5.88 0 1 0 11.76 0 a5.88 5.88 0 1 0 -11.76 0zM534.62 587.5 a5.88 5.88 0 1 0 11.76 0 a5.88 5.88 0 1 0 -11.76 0z" fill="black"></path><path d="M863.62 446.5 a5.88 5.88 0 1 0 11.76 0 a5.88 5.88 0 1 0 -11.76 0zM910.62 540.5 a5.88 5.88 0 1 0 11.76 0 a5.88 5.88 0 1 0 -11.76 0zM863.62 399.5 a5.88 5.88 0 1 0 11.76 0 a5.88 5.88 0 1 0 -11.76 0zM910.62 352.5 a5.88 5.88 0 1 0 11.76 0 a5.88 5.88 0 1 0 -11.76 0zM722.62 352.5 a5.88 5.88 0 1 0 11.76 0 a5.88 5.88 0 1 0 -11.76 0zM675.62 352.5 a5.88 5.88 0 1 0 11.76 0 a5.88 5.88 0 1 0 -11.76 0z" fill="black"></path><path d="M393.62 728.5 a5.88 5.88 0 1 0 11.76 0 a5.88 5.88 0 1 0 -11.76 0zM440.62 681.5 a5.88 5.88 0 1 0 11.76 0 a5.88 5.88 0 1 0 -11.76 0z" fill="black"></path><path d="M534.62 399.5 a5.88 5.88 0 1 0 11.76 0 a5.88 5.88 0 1 0 -11.76 0zM581.62 352.5 a5.88 5.88 0 1 0 11.76 0 a5.88 5.88 0 1 0 -11.76 0zM581.62 305.5 a5.88 5.88 0 1 0 11.76 0 a5.88 5.88 0 1 0 -11.76 0zM487.62 305.5 a5.88 5.88 0 1 0 11.76 0 a5.88 5.88 0 1 0 -11.76 0z" fill="black"></path><path d="M863.62 775.5 a5.88 5.88 0 1 0 11.76 0 a5.88 5.88 0 1 0 -11.76 0zM863.62 728.5 a5.88 5.88 0 1 0 11.76 0 a5.88 5.88 0 1 0 -11.76 0zM863.62 822.5 a5.88 5.88 0 1 0 11.76 0 a5.88 5.88 0 1 0 -11.76 0zM769.62 681.5 a5.88 5.88 0 1 0 11.76 0 a5.88 5.88 0 1 0 -11.76 0zM487.62 728.5 a5.88 5.88 0 1 0 11.76 0 a5.88 5.88 0 1 0 -11.76 0zM722.62 869.5 a5.88 5.88 0 1 0 11.76 0 a5.88 5.88 0 1 0 -11.76 0z" fill="black"></path><path d="M910.62 916.5 a5.88 5.88 0 1 0 11.76 0 a5.88 5.88 0 1 0 -11.76 0zM299.62 775.5 a5.88 5.88 0 1 0 11.76 0 a5.88 5.88 0 1 0 -11.76 0zM1192.62 869.5 a5.88 5.88 0 1 0 11.76 0 a5.88 5.88 0 1 0 -11.76 0zM487.62 869.5 a5.88 5.88 0 1 0 11.76 0 a5.88 5.88 0 1 0 -11.76 0zM816.62 869.5 a5.88 5.88 0 1 0 11.76 0 a5.88 5.88 0 1 0 -11.76 0z" fill="black"></path><path d="M252.62 399.5 a5.88 5.88 0 1 0 11.76 0 a5.88 5.88 0 1 0 -11.76 0zM205.62 352.5 a5.88 5.88 0 1 0 11.76 0 a5.88 5.88 0 1 0 -11.76 0zM64.62 352.5 a5.88 5.88 0 1 0 11.76 0 a5.88 5.88 0 1 0 -11.76 0zM158.62 352.5 a5.88 5.88 0 1 0 11.76 0 a5.88 5.88 0 1 0 -11.76 0z" fill="black"></path><path d="M910.62 963.5 a5.88 5.88 0 1 0 11.76 0 a5.88 5.88 0 1 0 -11.76 0zM205.62 822.5 a5.88 5.88 0 1 0 11.76 0 a5.88 5.88 0 1 0 -11.76 0zM393.62 916.5 a5.88 5.88 0 1 0 11.76 0 a5.88 5.88 0 1 0 -11.76 0zM440.62 869.5 a5.88 5.88 0 1 0 11.76 0 a5.88 5.88 0 1 0 -11.76 0zM534.62 963.5 a5.88 5.88 0 1 0 11.76 0 a5.88 5.88 0 1 0 -11.76 0z" fill="black"></path><path d="M769.62 258.5 a5.88 5.88 0 1 0 11.76 0 a5.88 5.88 0 1 0 -11.76 0zM816.62 211.5 a5.88 5.88 0 1 0 11.76 0 a5.88 5.88 0 1 0 -11.76 0zM628.62 164.5 a5.88 5.88 0 1 0 11.76 0 a5.88 5.88 0 1 0 -11.76 0zM816.62 305.5 a5.88 5.88 0 1 0 11.76 0 a5.88 5.88 0 1 0 -11.76 0zM440.62 305.5 a5.88 5.88 0 1 0 11.76 0 a5.88 5.88 0 1 0 -11.76 0z" fill="black"></path></mask></defs></svg>