<svg xmlns="http://www.w3.org/2000/svg" version="1.1" xmlns:xlink="http://www.w3.org/1999/xlink" xmlns:svgjs="http://svgjs.dev/svgjs" width="1080" height="920" preserveAspectRatio="none" viewBox="0 0 1080 920"><g mask="url(&quot;#SvgjsMask3639&quot;)" fill="none"><rect width="1080" height="920" x="0" y="0" fill="url(&quot;#SvgjsLinearGradient3640&quot;)"></rect><path d="M1080 0L1000.56 0L1080 327.48z" fill="rgba(255, 255, 255, .1)"></path><path d="M1000.56 0L1080 327.48L1080 495.85L656.05 0z" fill="rgba(255, 255, 255, .075)"></path><path d="M656.05 0L1080 495.85L1080 684.58L454.42999999999995 0z" fill="rgba(255, 255, 255, .05)"></path><path d="M454.43000000000006 0L1080 684.58L1080 738.3000000000001L276.49000000000007 0z" fill="rgba(255, 255, 255, .025)"></path><path d="M0 920L18.6 920L0 726.25z" fill="rgba(0, 0, 0, .1)"></path><path d="M0 726.25L18.6 920L24.94 920L0 343.61z" fill="rgba(0, 0, 0, .075)"></path><path d="M0 343.61L24.94 920L144.34 920L0 274.01z" fill="rgba(0, 0, 0, .05)"></path><path d="M0 274.01L144.34 920L335.01 920L0 267.21999999999997z" fill="rgba(0, 0, 0, .025)"></path></g><defs><mask id="SvgjsMask3639"><rect width="1080" height="920" fill="#ffffff"></rect></mask><linearGradient x1="50%" y1="0%" x2="50%" y2="100%" gradientUnits="userSpaceOnUse" id="SvgjsLinearGradient3640"><stop stop-color="rgba(180, 190, 239, 0.93)" offset="0"></stop><stop stop-color="rgba(255, 255, 255, 0.89)" offset="1"></stop></linearGradient></defs></svg>